<svg xmlns="http://www.w3.org/2000/svg" viewBox="0 0 32 32" width="64" height="64">
  <circle cx="16" cy="16" r="16" fill="#4cca47"/>
  <path d="M18 13c.5 0 .8-.3.8-.8s-.3-.8-.8-.8h-2v1.6h2zm-.3 4.3c.6 0 .9-.3.9-.9s-.3-.8-.9-.8h-2.2v1.7h2.2zM24 16c0 4.4-3.6 8-8 8s-8-3.6-8-8 3.6-8 8-8 8 3.6 8 8zm-5.2-3.4c.6-.4.9-1 .8-1.7-.2-1.2-1.3-1.8-3-1.8v-1.4h-.9v1.4h-.8v-1.4h-.9v1.4H11v1.8h1.2c.6 0 .8.2.8.7v6.2c0 .4-.2.6-.8.6H11V21h3.1v1.4h.9V21h.8v1.4h.9V21c2.1 0 3.4-.8 3.6-2.2.2-.9-.2-1.7-1.1-2.1z" fill="#fff"/>
</svg>
